<mxfile host="app.diagrams.net" modified="2024-05-24T07:56:47.948Z" agent="Mozilla/5.0 (Windows NT 10.0; Win64; x64) AppleWebKit/537.36 (KHTML, like Gecko) Chrome/125.0.0.0 Safari/537.36" version="24.4.7" etag="g56Lozcwvj6U0JUekEUO" type="github">
  <diagram name="Halaman-1" id="LsKxXxemTX3U0jBM6FyO">
    <mxGraphModel>
      <root>
        <mxCell id="0" />
        <mxCell id="1" parent="0" />
      </root>
    </mxGraphModel>
  </diagram>
</mxfile>
